<mxfile host="app.diagrams.net" agent="Mozilla/5.0 (X11; Linux x86_64; rv:135.0) Gecko/20100101 Firefox/135.0" version="26.1.1">
  <diagram name="Page-1" id="1-Dmif6JfqjTOKjk6_ly">
    <mxGraphModel dx="1434" dy="910" grid="1" gridSize="10" guides="1" tooltips="1" connect="1" arrows="1" fold="1" page="1" pageScale="1" pageWidth="850" pageHeight="1100" math="0" shadow="0">
      <root>
        <mxCell id="0" />
        <mxCell id="1" parent="0" />
        <mxCell id="Vpb9VqS_DFOe6_gimyxb-21" value="" style="edgeStyle=orthogonalEdgeStyle;rounded=0;orthogonalLoop=1;jettySize=auto;html=1;" edge="1" parent="1" source="Vpb9VqS_DFOe6_gimyxb-1" target="Vpb9VqS_DFOe6_gimyxb-14">
          <mxGeometry relative="1" as="geometry" />
        </mxCell>
        <mxCell id="Vpb9VqS_DFOe6_gimyxb-1" value="Blogs" style="rounded=1;whiteSpace=wrap;html=1;" vertex="1" parent="1">
          <mxGeometry x="140" y="150" width="120" height="60" as="geometry" />
        </mxCell>
        <mxCell id="Vpb9VqS_DFOe6_gimyxb-2" value="Images" style="rounded=1;whiteSpace=wrap;html=1;" vertex="1" parent="1">
          <mxGeometry x="140" y="420" width="120" height="60" as="geometry" />
        </mxCell>
        <mxCell id="Vpb9VqS_DFOe6_gimyxb-3" value="Comments" style="rounded=1;whiteSpace=wrap;html=1;" vertex="1" parent="1">
          <mxGeometry x="540" y="150" width="120" height="60" as="geometry" />
        </mxCell>
        <mxCell id="Vpb9VqS_DFOe6_gimyxb-4" value="Inquiries" style="rounded=1;whiteSpace=wrap;html=1;" vertex="1" parent="1">
          <mxGeometry x="540" y="370" width="120" height="60" as="geometry" />
        </mxCell>
        <mxCell id="Vpb9VqS_DFOe6_gimyxb-5" value="Attachments" style="rounded=1;whiteSpace=wrap;html=1;" vertex="1" parent="1">
          <mxGeometry x="540" y="580" width="120" height="60" as="geometry" />
        </mxCell>
        <mxCell id="Vpb9VqS_DFOe6_gimyxb-14" value="Thumnail" style="ellipse;whiteSpace=wrap;html=1;aspect=fixed;" vertex="1" parent="1">
          <mxGeometry x="30" y="145" width="80" height="80" as="geometry" />
        </mxCell>
        <mxCell id="Vpb9VqS_DFOe6_gimyxb-16" style="edgeStyle=orthogonalEdgeStyle;rounded=0;orthogonalLoop=1;jettySize=auto;html=1;" edge="1" parent="1" source="Vpb9VqS_DFOe6_gimyxb-15" target="Vpb9VqS_DFOe6_gimyxb-1">
          <mxGeometry relative="1" as="geometry" />
        </mxCell>
        <mxCell id="Vpb9VqS_DFOe6_gimyxb-17" style="edgeStyle=orthogonalEdgeStyle;rounded=0;orthogonalLoop=1;jettySize=auto;html=1;entryX=0;entryY=0.5;entryDx=0;entryDy=0;" edge="1" parent="1" source="Vpb9VqS_DFOe6_gimyxb-15" target="Vpb9VqS_DFOe6_gimyxb-3">
          <mxGeometry relative="1" as="geometry" />
        </mxCell>
        <mxCell id="Vpb9VqS_DFOe6_gimyxb-15" value="1 &amp;lt;-&amp;gt; N" style="rhombus;whiteSpace=wrap;html=1;" vertex="1" parent="1">
          <mxGeometry x="370" y="140" width="80" height="80" as="geometry" />
        </mxCell>
        <mxCell id="Vpb9VqS_DFOe6_gimyxb-19" style="edgeStyle=orthogonalEdgeStyle;rounded=0;orthogonalLoop=1;jettySize=auto;html=1;" edge="1" parent="1" source="Vpb9VqS_DFOe6_gimyxb-18" target="Vpb9VqS_DFOe6_gimyxb-2">
          <mxGeometry relative="1" as="geometry" />
        </mxCell>
        <mxCell id="Vpb9VqS_DFOe6_gimyxb-20" style="edgeStyle=orthogonalEdgeStyle;rounded=0;orthogonalLoop=1;jettySize=auto;html=1;entryX=0.5;entryY=1;entryDx=0;entryDy=0;" edge="1" parent="1" source="Vpb9VqS_DFOe6_gimyxb-18" target="Vpb9VqS_DFOe6_gimyxb-1">
          <mxGeometry relative="1" as="geometry" />
        </mxCell>
        <mxCell id="Vpb9VqS_DFOe6_gimyxb-18" value="N - N" style="rhombus;whiteSpace=wrap;html=1;" vertex="1" parent="1">
          <mxGeometry x="160" y="290" width="80" height="80" as="geometry" />
        </mxCell>
        <mxCell id="Vpb9VqS_DFOe6_gimyxb-24" value="" style="edgeStyle=orthogonalEdgeStyle;rounded=0;orthogonalLoop=1;jettySize=auto;html=1;" edge="1" parent="1" source="Vpb9VqS_DFOe6_gimyxb-22" target="Vpb9VqS_DFOe6_gimyxb-14">
          <mxGeometry relative="1" as="geometry" />
        </mxCell>
        <mxCell id="Vpb9VqS_DFOe6_gimyxb-25" style="edgeStyle=orthogonalEdgeStyle;rounded=0;orthogonalLoop=1;jettySize=auto;html=1;entryX=0;entryY=0.5;entryDx=0;entryDy=0;exitX=0.5;exitY=1;exitDx=0;exitDy=0;" edge="1" parent="1" source="Vpb9VqS_DFOe6_gimyxb-22" target="Vpb9VqS_DFOe6_gimyxb-2">
          <mxGeometry relative="1" as="geometry">
            <Array as="points">
              <mxPoint x="70" y="470" />
              <mxPoint x="120" y="470" />
              <mxPoint x="120" y="450" />
            </Array>
          </mxGeometry>
        </mxCell>
        <mxCell id="Vpb9VqS_DFOe6_gimyxb-22" value="&amp;nbsp;N - 1" style="rhombus;whiteSpace=wrap;html=1;" vertex="1" parent="1">
          <mxGeometry x="30" y="310" width="80" height="80" as="geometry" />
        </mxCell>
        <mxCell id="Vpb9VqS_DFOe6_gimyxb-28" value="" style="edgeStyle=orthogonalEdgeStyle;rounded=0;orthogonalLoop=1;jettySize=auto;html=1;" edge="1" parent="1" source="Vpb9VqS_DFOe6_gimyxb-26" target="Vpb9VqS_DFOe6_gimyxb-4">
          <mxGeometry relative="1" as="geometry" />
        </mxCell>
        <mxCell id="Vpb9VqS_DFOe6_gimyxb-29" value="" style="edgeStyle=orthogonalEdgeStyle;rounded=0;orthogonalLoop=1;jettySize=auto;html=1;" edge="1" parent="1" source="Vpb9VqS_DFOe6_gimyxb-26" target="Vpb9VqS_DFOe6_gimyxb-5">
          <mxGeometry relative="1" as="geometry" />
        </mxCell>
        <mxCell id="Vpb9VqS_DFOe6_gimyxb-26" value="1 - N" style="rhombus;whiteSpace=wrap;html=1;" vertex="1" parent="1">
          <mxGeometry x="560" y="460" width="80" height="80" as="geometry" />
        </mxCell>
        <mxCell id="Vpb9VqS_DFOe6_gimyxb-32" value="&amp;nbsp;has comments " style="text;html=1;align=center;verticalAlign=middle;whiteSpace=wrap;rounded=0;" vertex="1" parent="1">
          <mxGeometry x="380" y="110" width="60" height="30" as="geometry" />
        </mxCell>
        <mxCell id="Vpb9VqS_DFOe6_gimyxb-33" value="contains images" style="text;html=1;align=center;verticalAlign=middle;whiteSpace=wrap;rounded=0;" vertex="1" parent="1">
          <mxGeometry x="230" y="315" width="60" height="30" as="geometry" />
        </mxCell>
        <mxCell id="Vpb9VqS_DFOe6_gimyxb-34" value="image is thumnail" style="text;html=1;align=center;verticalAlign=middle;whiteSpace=wrap;rounded=0;" vertex="1" parent="1">
          <mxGeometry x="80" y="310" width="60" height="30" as="geometry" />
        </mxCell>
        <mxCell id="Vpb9VqS_DFOe6_gimyxb-35" value="has" style="text;html=1;align=center;verticalAlign=middle;whiteSpace=wrap;rounded=0;" vertex="1" parent="1">
          <mxGeometry x="630" y="485" width="60" height="30" as="geometry" />
        </mxCell>
        <mxCell id="Vpb9VqS_DFOe6_gimyxb-36" value="Name" style="text;html=1;align=center;verticalAlign=middle;whiteSpace=wrap;rounded=0;" vertex="1" parent="1">
          <mxGeometry x="130" y="120" width="60" height="30" as="geometry" />
        </mxCell>
        <mxCell id="Vpb9VqS_DFOe6_gimyxb-37" value="Contents" style="text;html=1;align=center;verticalAlign=middle;whiteSpace=wrap;rounded=0;" vertex="1" parent="1">
          <mxGeometry x="220" y="120" width="60" height="30" as="geometry" />
        </mxCell>
        <mxCell id="Vpb9VqS_DFOe6_gimyxb-39" value="Date" style="text;html=1;align=center;verticalAlign=middle;whiteSpace=wrap;rounded=0;" vertex="1" parent="1">
          <mxGeometry x="170" y="120" width="60" height="30" as="geometry" />
        </mxCell>
        <mxCell id="Vpb9VqS_DFOe6_gimyxb-40" value="name" style="text;html=1;align=center;verticalAlign=middle;whiteSpace=wrap;rounded=0;" vertex="1" parent="1">
          <mxGeometry x="540" y="115" width="60" height="30" as="geometry" />
        </mxCell>
        <mxCell id="Vpb9VqS_DFOe6_gimyxb-41" value="contents" style="text;html=1;align=center;verticalAlign=middle;whiteSpace=wrap;rounded=0;" vertex="1" parent="1">
          <mxGeometry x="600" y="110" width="60" height="30" as="geometry" />
        </mxCell>
        <mxCell id="Vpb9VqS_DFOe6_gimyxb-42" value="data" style="text;html=1;align=center;verticalAlign=middle;whiteSpace=wrap;rounded=0;" vertex="1" parent="1">
          <mxGeometry x="140" y="480" width="60" height="30" as="geometry" />
        </mxCell>
        <mxCell id="Vpb9VqS_DFOe6_gimyxb-43" value="alt text" style="text;html=1;align=center;verticalAlign=middle;whiteSpace=wrap;rounded=0;" vertex="1" parent="1">
          <mxGeometry x="200" y="480" width="60" height="30" as="geometry" />
        </mxCell>
        <mxCell id="Vpb9VqS_DFOe6_gimyxb-44" value="email" style="text;html=1;align=center;verticalAlign=middle;whiteSpace=wrap;rounded=0;" vertex="1" parent="1">
          <mxGeometry x="540" y="340" width="60" height="30" as="geometry" />
        </mxCell>
        <mxCell id="Vpb9VqS_DFOe6_gimyxb-46" value="name" style="text;html=1;align=center;verticalAlign=middle;whiteSpace=wrap;rounded=0;" vertex="1" parent="1">
          <mxGeometry x="590" y="335" width="60" height="30" as="geometry" />
        </mxCell>
        <mxCell id="Vpb9VqS_DFOe6_gimyxb-47" value="is business" style="text;html=1;align=center;verticalAlign=middle;whiteSpace=wrap;rounded=0;" vertex="1" parent="1">
          <mxGeometry x="470" y="380" width="60" height="30" as="geometry" />
        </mxCell>
        <mxCell id="Vpb9VqS_DFOe6_gimyxb-48" value="id" style="text;html=1;align=center;verticalAlign=middle;whiteSpace=wrap;rounded=0;" vertex="1" parent="1">
          <mxGeometry x="670" y="380" width="60" height="30" as="geometry" />
        </mxCell>
        <mxCell id="Vpb9VqS_DFOe6_gimyxb-49" value="is_visible" style="text;html=1;align=center;verticalAlign=middle;whiteSpace=wrap;rounded=0;" vertex="1" parent="1">
          <mxGeometry x="150" y="100" width="60" height="30" as="geometry" />
        </mxCell>
        <mxCell id="Vpb9VqS_DFOe6_gimyxb-50" value="id" style="text;html=1;align=center;verticalAlign=middle;whiteSpace=wrap;rounded=0;" vertex="1" parent="1">
          <mxGeometry x="200" y="100" width="60" height="30" as="geometry" />
        </mxCell>
        <mxCell id="Vpb9VqS_DFOe6_gimyxb-51" value="name" style="text;html=1;align=center;verticalAlign=middle;whiteSpace=wrap;rounded=0;" vertex="1" parent="1">
          <mxGeometry x="600" y="640" width="60" height="30" as="geometry" />
        </mxCell>
        <mxCell id="Vpb9VqS_DFOe6_gimyxb-52" value="data" style="text;html=1;align=center;verticalAlign=middle;whiteSpace=wrap;rounded=0;" vertex="1" parent="1">
          <mxGeometry x="540" y="640" width="60" height="30" as="geometry" />
        </mxCell>
        <mxCell id="Vpb9VqS_DFOe6_gimyxb-53" value="id" style="text;html=1;align=center;verticalAlign=middle;whiteSpace=wrap;rounded=0;" vertex="1" parent="1">
          <mxGeometry x="480" y="600" width="60" height="30" as="geometry" />
        </mxCell>
        <mxCell id="Vpb9VqS_DFOe6_gimyxb-54" value="id" style="text;html=1;align=center;verticalAlign=middle;whiteSpace=wrap;rounded=0;" vertex="1" parent="1">
          <mxGeometry x="260" y="435" width="60" height="30" as="geometry" />
        </mxCell>
      </root>
    </mxGraphModel>
  </diagram>
</mxfile>
